<svg width="1474" height="1471" viewBox="0 0 1474 1471" fill="none" xmlns="http://www.w3.org/2000/svg">
<g clip-path="url(#clip0_943_732)">
<rect width="1474" height="1471" fill="white"/>
<rect x="25" y="25" width="1420" height="1420" fill="white" stroke="#007BFF" stroke-width="8"/>
<rect x="68" y="68" width="279" height="279" fill="#007BFF" stroke="#274867" stroke-width="4"/>
<path d="M107.665 184H158.905V171.76H141.025V100H124.345L107.545 111.52V125.56L124.225 114.28H127.105V171.76H107.665V184Z" fill="white"/>
<rect x="68" y="420" width="279" height="279" fill="#007BFF" stroke="#274867" stroke-width="4"/>
<path d="M116.356 476.24C117.316 467 123.316 462.8 131.476 462.8C140.116 462.8 145.996 467.48 145.996 476.72C145.996 485.6 138.916 492.32 132.676 497.24L102.556 521V536H162.436V523.76H123.556V520.88L142.996 505.16C152.596 497.48 160.036 488 160.036 476.6C160.036 459.44 148.156 450.32 131.836 450.32C115.156 450.32 103.396 458.96 102.436 476.24H116.356Z" fill="white"/>
<rect x="68" y="772" width="279" height="279" fill="#007BFF" stroke="#274867" stroke-width="4"/>
<path d="M105.905 804V815.88H141.545V818.76L123.425 833.52V846.24C125.465 845.76 127.985 845.52 130.985 845.52C141.905 845.52 147.785 851.76 147.785 861.36C147.785 871.08 141.305 877.08 130.865 877.08C121.865 877.08 115.025 872.04 114.185 863.4H100.145C100.745 878.28 112.865 889.56 130.865 889.56C148.865 889.56 161.705 879 161.705 861.36C161.705 845.76 151.865 837.12 139.265 836.52V833.52L157.505 818.76V804H105.905Z" fill="white"/>
<rect x="68" y="1124" width="279" height="279" fill="#007BFF" stroke="#274867" stroke-width="4"/>
<path d="M153.417 1208.92V1156H136.017L99.0572 1206.04V1221.16H139.857V1240H153.417V1221.16H164.337V1208.92H153.417ZM112.857 1208.92V1206.04L137.337 1171.84H140.217V1208.92H112.857Z" fill="white"/>
</g>
<defs>
<clipPath id="clip0_943_732">
<rect width="1474" height="1471" fill="white"/>
</clipPath>
</defs>
</svg>
