<svg width="1474" height="830" viewBox="0 0 1474 830" fill="none" xmlns="http://www.w3.org/2000/svg">
<g clip-path="url(#clip0_943_754)">
<rect width="1474" height="830" fill="white"/>
<g filter="url(#filter0_d_943_754)">
<rect x="35" y="34" width="1404" height="762" fill="white"/>
<rect x="37" y="36" width="1400" height="758" stroke="#CCE5FF" stroke-width="4"/>
</g>
<rect x="37" y="36" width="1400" height="133" stroke="#CCE5FF" stroke-width="4"/>
<rect x="78" y="206" width="944" height="547" fill="#CCE5FF"/>
<rect x="455" y="60" width="518" height="87" rx="6" stroke="#CCE5FF" stroke-width="4"/>
<rect x="344" y="348" width="170" height="170" fill="#007BFF"/>
<path d="M87 435.201L301.794 435.199" stroke="#274867" stroke-width="8"/>
<path d="M291.59 434.372V446.908L320.469 434.398L291.59 422.059V434.372Z" fill="#274867" stroke="#274867" stroke-width="8"/>
<path d="M428.8 217.999L428.8 305.497" stroke="#274867" stroke-width="8"/>
<path d="M429.628 295.295L417.092 295.295L429.602 324.174L441.941 295.295L429.628 295.295Z" fill="#274867" stroke="#274867" stroke-width="8"/>
<path d="M100.792 368.466V399H104.362V368.466H100.792ZM129.605 387.156C129.479 381.948 126.455 377.286 120.155 377.286C113.729 377.286 109.949 381.696 109.949 388.206C109.949 394.716 113.645 399.546 120.239 399.546C125.489 399.546 128.555 396.774 129.227 393.162H125.615C124.985 395.178 123.221 396.438 120.239 396.438C115.871 396.438 113.603 393.414 113.477 388.374H129.605V387.156ZM120.071 380.394C123.641 380.394 125.699 382.704 125.909 385.392H113.687C114.149 382.704 116.249 380.394 120.071 380.394ZM145.831 380.94V377.832H140.077V375.522C140.077 373.338 141.001 371.574 143.815 371.574H145.831V368.466H143.773C139.195 368.466 136.507 370.566 136.507 375.396V377.832H132.853V380.94H136.507V399H140.077V380.94H145.831ZM155.54 377.832V371.448H151.97V377.832H148.316V380.94H151.97V393.078C151.97 397.572 154.658 399 159.236 399H160.874V395.808H159.32C156.464 395.808 155.54 394.716 155.54 392.574V380.94H160.874V377.832H155.54ZM170.903 399V394.128H166.535V399H170.903ZM170.903 382.704V377.832H166.535V382.704H170.903ZM188.296 399H205.39V395.724H198.964V369.6H194.386L188.254 373.758V377.622L194.428 373.464H195.268V395.724H188.296V399ZM220.086 369.012C213.87 369.012 209.292 373.716 209.292 384.3C209.292 394.884 213.87 399.546 220.086 399.546C226.302 399.546 230.922 394.884 230.922 384.3C230.922 373.716 226.302 369.012 220.086 369.012ZM220.086 396.27C215.214 396.27 212.988 391.566 212.988 384.3C212.988 376.992 215.214 372.288 220.086 372.288C225 372.288 227.226 376.992 227.226 384.3C227.226 391.566 225 396.27 220.086 396.27ZM246.336 369.012C240.12 369.012 235.542 373.716 235.542 384.3C235.542 394.884 240.12 399.546 246.336 399.546C252.552 399.546 257.172 394.884 257.172 384.3C257.172 373.716 252.552 369.012 246.336 369.012ZM246.336 396.27C241.464 396.27 239.238 391.566 239.238 384.3C239.238 376.992 241.464 372.288 246.336 372.288C251.25 372.288 253.476 376.992 253.476 384.3C253.476 391.566 251.25 396.27 246.336 396.27ZM284.78 380.394C289.022 380.394 291.29 383.712 291.29 388.416C291.29 393.12 289.022 396.438 284.78 396.438C280.076 396.438 278.144 392.574 278.144 388.416C278.144 384.258 280.076 380.394 284.78 380.394ZM274.616 377.832V407.4H278.186V396.732H279.11C280.244 398.244 282.218 399.546 285.578 399.546C291.416 399.546 294.86 394.8 294.86 388.416C294.86 382.158 291.416 377.286 285.578 377.286C282.218 377.286 280.16 378.63 278.984 380.1H278.06V377.832H274.616ZM314.077 399H318.109L311.557 388.038L317.563 377.832H313.825L308.869 386.232H307.357L302.485 377.832H298.705L304.627 388.164L298.033 399H301.939L307.315 390.138H308.827L314.077 399Z" fill="#274867"/>
<path d="M482.534 270.832V264.448H478.964V270.832H475.31V273.94H478.964V286.078C478.964 290.572 481.652 292 486.23 292H487.868V288.808H486.314C483.458 288.808 482.534 287.716 482.534 285.574V273.94H487.868V270.832H482.534ZM502.525 270.286C495.889 270.286 492.109 275.158 492.109 281.416C492.109 287.674 495.889 292.546 502.525 292.546C509.119 292.546 512.941 287.674 512.941 281.416C512.941 275.158 509.119 270.286 502.525 270.286ZM502.525 289.438C497.821 289.438 495.679 285.574 495.679 281.416C495.679 277.258 497.821 273.394 502.525 273.394C507.187 273.394 509.371 277.258 509.371 281.416C509.371 285.574 507.187 289.438 502.525 289.438ZM528.676 273.394C532.918 273.394 535.186 276.712 535.186 281.416C535.186 286.12 532.918 289.438 528.676 289.438C523.972 289.438 522.04 285.574 522.04 281.416C522.04 277.258 523.972 273.394 528.676 273.394ZM518.512 270.832V300.4H522.082V289.732H523.006C524.14 291.244 526.114 292.546 529.474 292.546C535.312 292.546 538.756 287.8 538.756 281.416C538.756 275.158 535.312 270.286 529.474 270.286C526.114 270.286 524.056 271.63 522.88 273.1H521.956V270.832H518.512ZM548.51 292V287.128H544.142V292H548.51ZM548.51 275.704V270.832H544.142V275.704H548.51ZM576.74 272.218C574.01 272.218 572.414 273.058 571.07 274.276H570.146L570.818 265.792H584.636V262.6H567.836L566.534 278.098H570.23C571.49 276.25 573.422 275.326 576.068 275.326C580.016 275.326 582.494 278.182 582.494 282.214C582.494 286.582 579.848 289.27 575.942 289.27C572.372 289.27 569.978 287.422 569.516 283.768H565.862C566.198 288.724 569.642 292.546 576.11 292.546C582.074 292.546 586.19 288.43 586.19 282.046C586.19 276.586 582.62 272.218 576.74 272.218ZM601.508 262.012C595.292 262.012 590.714 266.716 590.714 277.3C590.714 287.884 595.292 292.546 601.508 292.546C607.724 292.546 612.344 287.884 612.344 277.3C612.344 266.716 607.724 262.012 601.508 262.012ZM601.508 289.27C596.636 289.27 594.41 284.566 594.41 277.3C594.41 269.992 596.636 265.288 601.508 265.288C606.422 265.288 608.648 269.992 608.648 277.3C608.648 284.566 606.422 289.27 601.508 289.27ZM639.952 273.394C644.194 273.394 646.462 276.712 646.462 281.416C646.462 286.12 644.194 289.438 639.952 289.438C635.248 289.438 633.316 285.574 633.316 281.416C633.316 277.258 635.248 273.394 639.952 273.394ZM629.788 270.832V300.4H633.358V289.732H634.282C635.416 291.244 637.39 292.546 640.75 292.546C646.588 292.546 650.032 287.8 650.032 281.416C650.032 275.158 646.588 270.286 640.75 270.286C637.39 270.286 635.332 271.63 634.156 273.1H633.232V270.832H629.788ZM669.248 292H673.28L666.728 281.038L672.734 270.832H668.996L664.04 279.232H662.528L657.656 270.832H653.876L659.798 281.164L653.204 292H657.11L662.486 283.138H663.998L669.248 292Z" fill="#274867"/>
<path d="M356.861 397H378.211V391.9H370.761V362H363.811L356.811 366.8V372.65L363.761 367.95H364.961V391.9H356.861V397Z" fill="white"/>
<path d="M104.317 86.3066L87.6249 102.999L104.317 119.692" stroke="#274867" stroke-width="1.5" stroke-linecap="round" stroke-linejoin="round"/>
<path d="M134.375 103H88.0925" stroke="#274867" stroke-width="1.5" stroke-linecap="round" stroke-linejoin="round"/>
<path d="M225.683 86.3066L242.375 102.999L225.683 119.692" stroke="#274867" stroke-width="1.5" stroke-linecap="round" stroke-linejoin="round"/>
<path d="M195.625 103H241.907" stroke="#274867" stroke-width="1.5" stroke-linecap="round" stroke-linejoin="round"/>
<path d="M400.947 83.9696C398.555 83.2546 395.915 82.7871 393 82.7871C379.827 82.7871 369.157 93.4571 369.157 106.63C369.157 119.802 379.827 130.472 393 130.472C406.172 130.472 416.842 119.802 416.842 106.63C416.842 101.735 415.357 97.1696 412.827 93.3746" stroke="#274867" stroke-width="1.5" stroke-linecap="round" stroke-linejoin="round"/>
<path d="M404.357 84.63L396.41 75.5" stroke="#274867" stroke-width="1.5" stroke-linecap="round" stroke-linejoin="round"/>
<path d="M404.357 84.6309L395.09 91.3959" stroke="#274867" stroke-width="1.5" stroke-linecap="round" stroke-linejoin="round"/>
<path fill-rule="evenodd" clip-rule="evenodd" d="M1232 103C1224.41 103 1218.25 96.8439 1218.25 89.25C1218.25 81.6561 1224.41 75.5 1232 75.5C1239.59 75.5 1245.75 81.6561 1245.75 89.25C1245.75 96.8439 1239.59 103 1232 103Z" stroke="#274867" stroke-width="1.5" stroke-linecap="round" stroke-linejoin="round"/>
<path d="M1255.62 130.5C1255.62 119.858 1245.03 111.25 1232 111.25C1218.96 111.25 1208.38 119.858 1208.38 130.5" stroke="#274867" stroke-width="1.5" stroke-linecap="round" stroke-linejoin="round"/>
<path d="M1323.25 103C1323.25 106.025 1325.72 108.5 1328.75 108.5C1331.78 108.5 1334.25 106.025 1334.25 103C1334.25 99.975 1331.78 97.5 1328.75 97.5C1325.72 97.5 1323.25 99.975 1323.25 103Z" stroke="#274867" stroke-width="1.5"/>
<path d="M1361.75 103C1361.75 106.025 1364.22 108.5 1367.25 108.5C1370.28 108.5 1372.75 106.025 1372.75 103C1372.75 99.975 1370.28 97.5 1367.25 97.5C1364.22 97.5 1361.75 99.975 1361.75 103Z" stroke="#274867" stroke-width="1.5"/>
<path d="M1342.5 103C1342.5 106.025 1344.97 108.5 1348 108.5C1351.03 108.5 1353.5 106.025 1353.5 103C1353.5 99.975 1351.03 97.5 1348 97.5C1344.97 97.5 1342.5 99.975 1342.5 103Z" stroke="#274867" stroke-width="1.5"/>
<path fill-rule="evenodd" clip-rule="evenodd" d="M1053 130.5C1037.81 130.5 1025.5 118.188 1025.5 103C1025.5 87.8122 1037.81 75.5 1053 75.5C1068.19 75.5 1080.5 87.8122 1080.5 103C1080.5 118.188 1068.19 130.5 1053 130.5Z" stroke="#274867" stroke-width="1.5" stroke-linecap="round" stroke-linejoin="round"/>
<path d="M1042 78.25H1044.75C1039.39 94.31 1039.39 111.69 1044.75 127.75H1042" stroke="#274867" stroke-width="1.5" stroke-linecap="round" stroke-linejoin="round"/>
<path d="M1061.25 78.25C1066.61 94.31 1066.61 111.69 1061.25 127.75" stroke="#274867" stroke-width="1.5" stroke-linecap="round" stroke-linejoin="round"/>
<path d="M1028.25 114V111.25C1044.31 116.613 1061.69 116.613 1077.75 111.25V114" stroke="#274867" stroke-width="1.5" stroke-linecap="round" stroke-linejoin="round"/>
<path d="M1028.25 94.7504C1044.31 89.3879 1061.69 89.3879 1077.75 94.7504" stroke="#274867" stroke-width="1.5" stroke-linecap="round" stroke-linejoin="round"/>
<line x1="1140.5" y1="136" x2="1140.5" y2="70" stroke="#274867"/>
<path d="M485.5 97.5V92C485.5 82.8975 488.25 75.5 502 75.5C515.75 75.5 518.5 82.8975 518.5 92V97.5" stroke="#274867" stroke-width="1.5" stroke-linecap="round" stroke-linejoin="round"/>
<path fill-rule="evenodd" clip-rule="evenodd" d="M502 120.875C498.203 120.875 495.125 117.797 495.125 114C495.125 110.203 498.203 107.125 502 107.125C505.797 107.125 508.875 110.203 508.875 114C508.875 117.797 505.797 120.875 502 120.875Z" stroke="#274867" stroke-width="1.5" stroke-linecap="round" stroke-linejoin="round"/>
<path d="M488.25 130.5C477.25 130.5 474.5 127.75 474.5 116.75V111.25C474.5 100.25 477.25 97.5 488.25 97.5H515.75C526.75 97.5 529.5 100.25 529.5 111.25V116.75C529.5 127.75 526.75 130.5 515.75 130.5H488.25Z" stroke="#274867" stroke-width="1.5" stroke-linecap="round" stroke-linejoin="round"/>
<path d="M941.597 89.3323C942.257 90.6798 944.017 91.9723 945.502 92.2198L954.275 93.6773C959.885 94.6123 961.205 98.6823 957.162 102.697L950.342 109.517C949.187 110.672 948.555 112.9 948.912 114.495L950.865 122.937C952.405 129.62 948.857 132.205 942.945 128.712L934.722 123.845C933.237 122.965 930.79 122.965 929.277 123.845L921.055 128.712C915.17 132.205 911.595 129.592 913.135 122.937L915.087 114.495C915.445 112.9 914.812 110.672 913.657 109.517L906.837 102.697C902.822 98.6823 904.115 94.6123 909.725 93.6773L918.497 92.2198C919.955 91.9723 921.715 90.6798 922.375 89.3323L927.215 79.6523C929.855 74.3998 934.145 74.3998 936.757 79.6523L941.597 89.3323Z" stroke="#274867" stroke-width="1.5" stroke-linecap="round" stroke-linejoin="round"/>
</g>
<defs>
<filter id="filter0_d_943_754" x="15" y="14" width="1444" height="802" filterUnits="userSpaceOnUse" color-interpolation-filters="sRGB">
<feFlood flood-opacity="0" result="BackgroundImageFix"/>
<feColorMatrix in="SourceAlpha" type="matrix" values="0 0 0 0 0 0 0 0 0 0 0 0 0 0 0 0 0 0 127 0" result="hardAlpha"/>
<feOffset/>
<feGaussianBlur stdDeviation="10"/>
<feComposite in2="hardAlpha" operator="out"/>
<feColorMatrix type="matrix" values="0 0 0 0 0 0 0 0 0 0 0 0 0 0 0 0 0 0 0.35 0"/>
<feBlend mode="normal" in2="BackgroundImageFix" result="effect1_dropShadow_943_754"/>
<feBlend mode="normal" in="SourceGraphic" in2="effect1_dropShadow_943_754" result="shape"/>
</filter>
<clipPath id="clip0_943_754">
<rect width="1474" height="830" fill="white"/>
</clipPath>
</defs>
</svg>
