<svg width="1474" height="830" viewBox="0 0 1474 830" fill="none" xmlns="http://www.w3.org/2000/svg">
<g clip-path="url(#clip0_943_884)">
<rect width="1474" height="830" fill="white"/>
<g filter="url(#filter0_d_943_884)">
<rect x="35" y="34" width="1404" height="762" fill="white"/>
<rect x="37" y="36" width="1400" height="758" stroke="#CCE5FF" stroke-width="4"/>
</g>
<rect x="37" y="36" width="1400" height="133" stroke="#CCE5FF" stroke-width="4"/>
<rect x="455" y="60" width="518" height="87" rx="6" stroke="#CCE5FF" stroke-width="4"/>
<path d="M380.799 171.001L380.8 385.794" stroke="#274867" stroke-width="8"/>
<path d="M381.628 375.59L369.092 375.59L381.602 404.469L393.941 375.59L381.628 375.59Z" fill="#274867" stroke="#274867" stroke-width="8"/>
<path d="M432.816 287.832V281.448H429.246V287.832H425.592V290.94H429.246V303.078C429.246 307.572 431.934 309 436.512 309H438.15V305.808H436.596C433.74 305.808 432.816 304.716 432.816 302.574V290.94H438.15V287.832H432.816ZM452.807 287.286C446.171 287.286 442.391 292.158 442.391 298.416C442.391 304.674 446.171 309.546 452.807 309.546C459.401 309.546 463.223 304.674 463.223 298.416C463.223 292.158 459.401 287.286 452.807 287.286ZM452.807 306.438C448.103 306.438 445.961 302.574 445.961 298.416C445.961 294.258 448.103 290.394 452.807 290.394C457.469 290.394 459.653 294.258 459.653 298.416C459.653 302.574 457.469 306.438 452.807 306.438ZM478.959 290.394C483.201 290.394 485.469 293.712 485.469 298.416C485.469 303.12 483.201 306.438 478.959 306.438C474.255 306.438 472.323 302.574 472.323 298.416C472.323 294.258 474.255 290.394 478.959 290.394ZM468.795 287.832V317.4H472.365V306.732H473.289C474.423 308.244 476.397 309.546 479.757 309.546C485.595 309.546 489.039 304.8 489.039 298.416C489.039 292.158 485.595 287.286 479.757 287.286C476.397 287.286 474.339 288.63 473.163 290.1H472.239V287.832H468.795ZM498.792 309V304.128H494.424V309H498.792ZM498.792 292.704V287.832H494.424V292.704H498.792ZM516.186 309H533.28V305.724H526.854V279.6H522.276L516.144 283.758V287.622L522.318 283.464H523.158V305.724H516.186V309ZM547.976 279.012C541.76 279.012 537.182 283.716 537.182 294.3C537.182 304.884 541.76 309.546 547.976 309.546C554.192 309.546 558.812 304.884 558.812 294.3C558.812 283.716 554.192 279.012 547.976 279.012ZM547.976 306.27C543.104 306.27 540.878 301.566 540.878 294.3C540.878 286.992 543.104 282.288 547.976 282.288C552.89 282.288 555.116 286.992 555.116 294.3C555.116 301.566 552.89 306.27 547.976 306.27ZM574.226 279.012C568.01 279.012 563.432 283.716 563.432 294.3C563.432 304.884 568.01 309.546 574.226 309.546C580.442 309.546 585.062 304.884 585.062 294.3C585.062 283.716 580.442 279.012 574.226 279.012ZM574.226 306.27C569.354 306.27 567.128 301.566 567.128 294.3C567.128 286.992 569.354 282.288 574.226 282.288C579.14 282.288 581.366 286.992 581.366 294.3C581.366 301.566 579.14 306.27 574.226 306.27ZM612.67 290.394C616.912 290.394 619.18 293.712 619.18 298.416C619.18 303.12 616.912 306.438 612.67 306.438C607.966 306.438 606.034 302.574 606.034 298.416C606.034 294.258 607.966 290.394 612.67 290.394ZM602.506 287.832V317.4H606.076V306.732H607C608.134 308.244 610.108 309.546 613.468 309.546C619.306 309.546 622.75 304.8 622.75 298.416C622.75 292.158 619.306 287.286 613.468 287.286C610.108 287.286 608.05 288.63 606.874 290.1H605.95V287.832H602.506ZM641.966 309H645.998L639.446 298.038L645.452 287.832H641.714L636.758 296.232H635.246L630.374 287.832H626.594L632.516 298.164L625.922 309H629.828L635.204 300.138H636.716L641.966 309Z" fill="#274867"/>
<rect x="296" y="427" width="170" height="170" fill="#007BFF"/>
<path d="M39 514.201L253.794 514.199" stroke="#274867" stroke-width="8"/>
<path d="M243.59 513.372V525.908L272.469 513.398L243.59 501.059V513.372Z" fill="#274867" stroke="#274867" stroke-width="8"/>
<path d="M52.7917 447.466V478H56.3617V447.466H52.7917ZM81.6046 466.156C81.4786 460.948 78.4546 456.286 72.1546 456.286C65.7286 456.286 61.9486 460.696 61.9486 467.206C61.9486 473.716 65.6446 478.546 72.2386 478.546C77.4886 478.546 80.5546 475.774 81.2266 472.162H77.6146C76.9846 474.178 75.2206 475.438 72.2386 475.438C67.8706 475.438 65.6026 472.414 65.4766 467.374H81.6046V466.156ZM72.0706 459.394C75.6406 459.394 77.6986 461.704 77.9086 464.392H65.6866C66.1486 461.704 68.2486 459.394 72.0706 459.394ZM97.8308 459.94V456.832H92.0768V454.522C92.0768 452.338 93.0008 450.574 95.8148 450.574H97.8308V447.466H95.7728C91.1948 447.466 88.5068 449.566 88.5068 454.396V456.832H84.8528V459.94H88.5068V478H92.0768V459.94H97.8308ZM107.54 456.832V450.448H103.97V456.832H100.316V459.94H103.97V472.078C103.97 476.572 106.658 478 111.236 478H112.874V474.808H111.32C108.464 474.808 107.54 473.716 107.54 471.574V459.94H112.874V456.832H107.54ZM122.903 478V473.128H118.535V478H122.903ZM122.903 461.704V456.832H118.535V461.704H122.903ZM140.296 478H157.39V474.724H150.964V448.6H146.386L140.254 452.758V456.622L146.428 452.464H147.268V474.724H140.296V478ZM172.086 448.012C165.87 448.012 161.292 452.716 161.292 463.3C161.292 473.884 165.87 478.546 172.086 478.546C178.302 478.546 182.922 473.884 182.922 463.3C182.922 452.716 178.302 448.012 172.086 448.012ZM172.086 475.27C167.214 475.27 164.988 470.566 164.988 463.3C164.988 455.992 167.214 451.288 172.086 451.288C177 451.288 179.226 455.992 179.226 463.3C179.226 470.566 177 475.27 172.086 475.27ZM198.336 448.012C192.12 448.012 187.542 452.716 187.542 463.3C187.542 473.884 192.12 478.546 198.336 478.546C204.552 478.546 209.172 473.884 209.172 463.3C209.172 452.716 204.552 448.012 198.336 448.012ZM198.336 475.27C193.464 475.27 191.238 470.566 191.238 463.3C191.238 455.992 193.464 451.288 198.336 451.288C203.25 451.288 205.476 455.992 205.476 463.3C205.476 470.566 203.25 475.27 198.336 475.27ZM236.78 459.394C241.022 459.394 243.29 462.712 243.29 467.416C243.29 472.12 241.022 475.438 236.78 475.438C232.076 475.438 230.144 471.574 230.144 467.416C230.144 463.258 232.076 459.394 236.78 459.394ZM226.616 456.832V486.4H230.186V475.732H231.11C232.244 477.244 234.218 478.546 237.578 478.546C243.416 478.546 246.86 473.8 246.86 467.416C246.86 461.158 243.416 456.286 237.578 456.286C234.218 456.286 232.16 457.63 230.984 459.1H230.06V456.832H226.616ZM266.077 478H270.109L263.557 467.038L269.563 456.832H265.825L260.869 465.232H259.357L254.485 456.832H250.705L256.627 467.164L250.033 478H253.939L259.315 469.138H260.827L266.077 478Z" fill="#274867"/>
<path d="M308.861 476H330.211V470.9H322.761V441H315.811L308.811 445.8V451.65L315.761 446.95H316.961V470.9H308.861V476Z" fill="white"/>
<path d="M104.317 86.3066L87.6249 102.999L104.317 119.692" stroke="#274867" stroke-width="1.5" stroke-linecap="round" stroke-linejoin="round"/>
<path d="M134.375 103H88.0925" stroke="#274867" stroke-width="1.5" stroke-linecap="round" stroke-linejoin="round"/>
<path d="M225.683 86.3066L242.375 102.999L225.683 119.692" stroke="#274867" stroke-width="1.5" stroke-linecap="round" stroke-linejoin="round"/>
<path d="M195.625 103H241.907" stroke="#274867" stroke-width="1.5" stroke-linecap="round" stroke-linejoin="round"/>
<path d="M400.947 83.9696C398.555 83.2546 395.915 82.7871 393 82.7871C379.827 82.7871 369.157 93.4571 369.157 106.63C369.157 119.802 379.827 130.472 393 130.472C406.172 130.472 416.842 119.802 416.842 106.63C416.842 101.735 415.357 97.1696 412.827 93.3746" stroke="#274867" stroke-width="1.5" stroke-linecap="round" stroke-linejoin="round"/>
<path d="M404.357 84.63L396.41 75.5" stroke="#274867" stroke-width="1.5" stroke-linecap="round" stroke-linejoin="round"/>
<path d="M404.357 84.6309L395.09 91.3959" stroke="#274867" stroke-width="1.5" stroke-linecap="round" stroke-linejoin="round"/>
<path fill-rule="evenodd" clip-rule="evenodd" d="M1232 103C1224.41 103 1218.25 96.8439 1218.25 89.25C1218.25 81.6561 1224.41 75.5 1232 75.5C1239.59 75.5 1245.75 81.6561 1245.75 89.25C1245.75 96.8439 1239.59 103 1232 103Z" stroke="#274867" stroke-width="1.5" stroke-linecap="round" stroke-linejoin="round"/>
<path d="M1255.62 130.5C1255.62 119.858 1245.03 111.25 1232 111.25C1218.96 111.25 1208.38 119.858 1208.38 130.5" stroke="#274867" stroke-width="1.5" stroke-linecap="round" stroke-linejoin="round"/>
<path d="M1323.25 103C1323.25 106.025 1325.72 108.5 1328.75 108.5C1331.78 108.5 1334.25 106.025 1334.25 103C1334.25 99.975 1331.78 97.5 1328.75 97.5C1325.72 97.5 1323.25 99.975 1323.25 103Z" stroke="#274867" stroke-width="1.5"/>
<path d="M1361.75 103C1361.75 106.025 1364.22 108.5 1367.25 108.5C1370.28 108.5 1372.75 106.025 1372.75 103C1372.75 99.975 1370.28 97.5 1367.25 97.5C1364.22 97.5 1361.75 99.975 1361.75 103Z" stroke="#274867" stroke-width="1.5"/>
<path d="M1342.5 103C1342.5 106.025 1344.97 108.5 1348 108.5C1351.03 108.5 1353.5 106.025 1353.5 103C1353.5 99.975 1351.03 97.5 1348 97.5C1344.97 97.5 1342.5 99.975 1342.5 103Z" stroke="#274867" stroke-width="1.5"/>
<path fill-rule="evenodd" clip-rule="evenodd" d="M1053 130.5C1037.81 130.5 1025.5 118.188 1025.5 103C1025.5 87.8122 1037.81 75.5 1053 75.5C1068.19 75.5 1080.5 87.8122 1080.5 103C1080.5 118.188 1068.19 130.5 1053 130.5Z" stroke="#274867" stroke-width="1.5" stroke-linecap="round" stroke-linejoin="round"/>
<path d="M1042 78.25H1044.75C1039.39 94.31 1039.39 111.69 1044.75 127.75H1042" stroke="#274867" stroke-width="1.5" stroke-linecap="round" stroke-linejoin="round"/>
<path d="M1061.25 78.25C1066.61 94.31 1066.61 111.69 1061.25 127.75" stroke="#274867" stroke-width="1.5" stroke-linecap="round" stroke-linejoin="round"/>
<path d="M1028.25 114V111.25C1044.31 116.613 1061.69 116.613 1077.75 111.25V114" stroke="#274867" stroke-width="1.5" stroke-linecap="round" stroke-linejoin="round"/>
<path d="M1028.25 94.7504C1044.31 89.3879 1061.69 89.3879 1077.75 94.7504" stroke="#274867" stroke-width="1.5" stroke-linecap="round" stroke-linejoin="round"/>
<line x1="1140.5" y1="136" x2="1140.5" y2="70" stroke="#274867"/>
<path d="M485.5 97.5V92C485.5 82.8975 488.25 75.5 502 75.5C515.75 75.5 518.5 82.8975 518.5 92V97.5" stroke="#274867" stroke-width="1.5" stroke-linecap="round" stroke-linejoin="round"/>
<path fill-rule="evenodd" clip-rule="evenodd" d="M502 120.875C498.203 120.875 495.125 117.797 495.125 114C495.125 110.203 498.203 107.125 502 107.125C505.797 107.125 508.875 110.203 508.875 114C508.875 117.797 505.797 120.875 502 120.875Z" stroke="#274867" stroke-width="1.5" stroke-linecap="round" stroke-linejoin="round"/>
<path d="M488.25 130.5C477.25 130.5 474.5 127.75 474.5 116.75V111.25C474.5 100.25 477.25 97.5 488.25 97.5H515.75C526.75 97.5 529.5 100.25 529.5 111.25V116.75C529.5 127.75 526.75 130.5 515.75 130.5H488.25Z" stroke="#274867" stroke-width="1.5" stroke-linecap="round" stroke-linejoin="round"/>
<path d="M941.597 89.3323C942.257 90.6798 944.017 91.9723 945.502 92.2198L954.275 93.6773C959.885 94.6123 961.205 98.6823 957.162 102.697L950.342 109.517C949.187 110.672 948.555 112.9 948.912 114.495L950.865 122.937C952.405 129.62 948.857 132.205 942.945 128.712L934.722 123.845C933.237 122.965 930.79 122.965 929.277 123.845L921.055 128.712C915.17 132.205 911.595 129.592 913.135 122.937L915.087 114.495C915.445 112.9 914.812 110.672 913.657 109.517L906.837 102.697C902.822 98.6823 904.115 94.6123 909.725 93.6773L918.497 92.2198C919.955 91.9723 921.715 90.6798 922.375 89.3323L927.215 79.6523C929.855 74.3998 934.145 74.3998 936.757 79.6523L941.597 89.3323Z" stroke="#274867" stroke-width="1.5" stroke-linecap="round" stroke-linejoin="round"/>
</g>
<defs>
<filter id="filter0_d_943_884" x="15" y="14" width="1444" height="802" filterUnits="userSpaceOnUse" color-interpolation-filters="sRGB">
<feFlood flood-opacity="0" result="BackgroundImageFix"/>
<feColorMatrix in="SourceAlpha" type="matrix" values="0 0 0 0 0 0 0 0 0 0 0 0 0 0 0 0 0 0 127 0" result="hardAlpha"/>
<feOffset/>
<feGaussianBlur stdDeviation="10"/>
<feComposite in2="hardAlpha" operator="out"/>
<feColorMatrix type="matrix" values="0 0 0 0 0 0 0 0 0 0 0 0 0 0 0 0 0 0 0.35 0"/>
<feBlend mode="normal" in2="BackgroundImageFix" result="effect1_dropShadow_943_884"/>
<feBlend mode="normal" in="SourceGraphic" in2="effect1_dropShadow_943_884" result="shape"/>
</filter>
<clipPath id="clip0_943_884">
<rect width="1474" height="830" fill="white"/>
</clipPath>
</defs>
</svg>
