<svg width="1474" height="323" viewBox="0 0 1474 323" fill="none" xmlns="http://www.w3.org/2000/svg">
<g clip-path="url(#clip0)">
<path d="M1547 -25H-41V717H1547V-25Z" fill="white"/>
<rect x="37" y="39" width="1390" height="240" stroke="#007BFF" stroke-width="4"/>
<rect x="87" y="87" width="242" height="142" stroke="#007BFF" stroke-width="4"/>
<rect x="423" y="87" width="242" height="142" stroke="#007BFF" stroke-width="4"/>
<rect x="759" y="87" width="242" height="142" stroke="#007BFF" stroke-width="4"/>
<path d="M123.025 137.625V131.341H116.877V137.625H123.025ZM122.82 146.573H117.014V181H122.82V146.573ZM142.213 146.573V136.191H136.407V146.573H130.464V151.628H136.407V171.369C136.407 178.678 140.778 181 148.224 181H150.888V175.809H148.361C143.716 175.809 142.213 174.033 142.213 170.549V151.628H150.888V146.573H142.213ZM189.753 161.737C189.548 153.267 184.63 145.685 174.384 145.685C163.933 145.685 157.785 152.858 157.785 163.445C157.785 174.033 163.796 181.888 174.52 181.888C183.059 181.888 188.045 177.38 189.138 171.505H183.264C182.239 174.784 179.37 176.833 174.52 176.833C167.417 176.833 163.728 171.915 163.523 163.718H189.753V161.737ZM174.247 150.74C180.053 150.74 183.4 154.497 183.742 158.869H163.865C164.616 154.497 168.031 150.74 174.247 150.74ZM234.927 145.685C230.624 145.685 227.345 147.188 225.227 150.262H223.724C221.88 147.188 218.806 145.685 214.64 145.685C210.268 145.685 207.604 147.256 205.896 149.92H204.394V146.573H198.792V181H204.599V161.942C204.599 155.726 207.331 150.877 213.069 150.877C217.372 150.877 219.626 153.814 219.626 159.483V181H225.432V160.849C225.432 155.043 228.438 150.877 233.834 150.877C238.274 150.877 240.46 153.677 240.46 159.347V181H246.266V158.732C246.266 150.808 242.85 145.685 234.927 145.685ZM274.334 181H302.135V175.672H291.684V133.185H284.238L274.265 139.947V146.232L284.306 139.469H285.673V175.672H274.334V181Z" fill="#007BFF"/>
<path d="M456.357 137.625V131.341H450.209V137.625H456.357ZM456.152 146.573H450.346V181H456.152V146.573ZM475.545 146.573V136.191H469.739V146.573H463.796V151.628H469.739V171.369C469.739 178.678 474.11 181 481.556 181H484.22V175.809H481.692C477.047 175.809 475.545 174.033 475.545 170.549V151.628H484.22V146.573H475.545ZM523.085 161.737C522.88 153.267 517.962 145.685 507.716 145.685C497.265 145.685 491.117 152.858 491.117 163.445C491.117 174.033 497.128 181.888 507.852 181.888C516.391 181.888 521.377 177.38 522.47 171.505H516.596C515.571 174.784 512.702 176.833 507.852 176.833C500.748 176.833 497.06 171.915 496.855 163.718H523.085V161.737ZM507.579 150.74C513.385 150.74 516.732 154.497 517.074 158.869H497.196C497.948 154.497 501.363 150.74 507.579 150.74ZM568.259 145.685C563.955 145.685 560.677 147.188 558.559 150.262H557.056C555.212 147.188 552.138 145.685 547.971 145.685C543.6 145.685 540.936 147.256 539.228 149.92H537.725V146.573H532.124V181H537.93V161.942C537.93 155.726 540.663 150.877 546.4 150.877C550.704 150.877 552.958 153.814 552.958 159.483V181H558.764V160.849C558.764 155.043 561.769 150.877 567.166 150.877C571.606 150.877 573.791 153.677 573.791 159.347V181H579.598V158.732C579.598 150.808 576.182 145.685 568.259 145.685ZM613.267 146.368C613.881 140.357 617.638 137.557 623.034 137.557C628.841 137.557 632.666 140.767 632.666 146.778C632.666 152.448 628.499 156.341 625.22 159.278C622.693 161.601 618.185 165.426 614.359 168.5L607.324 174.238V181H640.179V175.672H616.067V174.169L628.089 164.06C633.759 159.347 638.677 153.267 638.677 146.778C638.677 137.215 632.119 132.229 623.171 132.229C614.701 132.229 607.802 136.805 607.255 146.368H613.267Z" fill="#007BFF"/>
<path d="M792.79 137.625V131.341H786.643V137.625H792.79ZM792.585 146.573H786.779V181H792.585V146.573ZM811.978 146.573V136.191H806.172V146.573H800.229V151.628H806.172V171.369C806.172 178.678 810.544 181 817.989 181H820.653V175.809H818.126C813.481 175.809 811.978 174.033 811.978 170.549V151.628H820.653V146.573H811.978ZM859.518 161.737C859.313 153.267 854.395 145.685 844.149 145.685C833.698 145.685 827.551 152.858 827.551 163.445C827.551 174.033 833.562 181.888 844.286 181.888C852.824 181.888 857.811 177.38 858.904 171.505H853.029C852.005 174.784 849.136 176.833 844.286 176.833C837.182 176.833 833.493 171.915 833.288 163.718H859.518V161.737ZM844.013 150.74C849.819 150.74 853.166 154.497 853.507 158.869H833.63C834.381 154.497 837.797 150.74 844.013 150.74ZM904.692 145.685C900.389 145.685 897.11 147.188 894.993 150.262H893.49C891.646 147.188 888.572 145.685 884.405 145.685C880.033 145.685 877.369 147.256 875.662 149.92H874.159V146.573H868.558V181H874.364V161.942C874.364 155.726 877.096 150.877 882.834 150.877C887.137 150.877 889.391 153.814 889.391 159.483V181H895.198V160.849C895.198 155.043 898.203 150.877 903.599 150.877C908.039 150.877 910.225 153.677 910.225 159.347V181H916.031V158.732C916.031 150.808 912.616 145.685 904.692 145.685ZM945.465 133.185V138.376H966.367V139.879L954.687 149.989V156.341C955.779 156.068 957.146 155.931 958.853 155.931C965.889 155.931 969.646 159.825 969.646 166.109C969.646 172.667 965.342 176.56 958.785 176.56C953.047 176.56 948.607 173.076 948.061 167.612H942.05C942.596 175.74 949.085 181.888 958.785 181.888C968.553 181.888 975.657 176.014 975.657 166.109C975.657 156.888 969.646 151.765 961.449 151.56V150.125L973.403 139.879V133.185H945.465Z" fill="#007BFF"/>
</g>
<defs>
<clipPath id="clip0">
<rect width="1474" height="323" fill="white"/>
</clipPath>
</defs>
</svg>
