<svg width="1474" height="1543" viewBox="0 0 1474 1543" fill="none" xmlns="http://www.w3.org/2000/svg">
<g clip-path="url(#clip0_943_659)">
<rect width="1474" height="1543" fill="white"/>
<rect x="21" y="21" width="1428" height="1500" fill="#CCE5FF"/>
<rect x="595" y="87" width="283" height="283" fill="#007BFF"/>
<path d="M616.665 205H667.905V192.76H650.025V121H633.345L616.545 132.52V146.56L633.225 135.28H636.105V192.76H616.665V205Z" fill="white"/>
<rect x="595" y="449" width="283" height="283" fill="#007BFF"/>
<path d="M625.356 507.24C626.316 498 632.316 493.8 640.476 493.8C649.116 493.8 654.996 498.48 654.996 507.72C654.996 516.6 647.916 523.32 641.676 528.24L611.556 552V567H671.436V554.76H632.556V551.88L651.996 536.16C661.596 528.48 669.036 519 669.036 507.6C669.036 490.44 657.156 481.32 640.836 481.32C624.156 481.32 612.396 489.96 611.436 507.24H625.356Z" fill="white"/>
<rect x="595" y="811" width="283" height="283" fill="#007BFF"/>
<path d="M614.905 845V856.88H650.545V859.76L632.425 874.52V887.24C634.465 886.76 636.985 886.52 639.985 886.52C650.905 886.52 656.785 892.76 656.785 902.36C656.785 912.08 650.305 918.08 639.865 918.08C630.865 918.08 624.025 913.04 623.185 904.4H609.145C609.745 919.28 621.865 930.56 639.865 930.56C657.865 930.56 670.705 920 670.705 902.36C670.705 886.76 660.865 878.12 648.265 877.52V874.52L666.505 859.76V845H614.905Z" fill="white"/>
<rect x="595" y="1173" width="283" height="283" fill="#007BFF"/>
<path d="M662.417 1259.92V1207H645.017L608.057 1257.04V1272.16H648.857V1291H662.417V1272.16H673.337V1259.92H662.417ZM621.857 1259.92V1257.04L646.337 1222.84H649.217V1259.92H621.857Z" fill="white"/>
</g>
<defs>
<clipPath id="clip0_943_659">
<rect width="1474" height="1543" fill="white"/>
</clipPath>
</defs>
</svg>
