<svg width="1474" height="1844" viewBox="0 0 1474 1844" fill="none" xmlns="http://www.w3.org/2000/svg">
<g clip-path="url(#clip0_943_700)">
<rect width="1474" height="1844" fill="white"/>
<rect x="55" y="212" width="586" height="1580" stroke="#007BFF" stroke-width="8"/>
<rect x="841" y="212" width="586" height="1580" stroke="#007BFF" stroke-width="8"/>
<rect x="568" y="284" width="426" height="440" transform="rotate(90 568 284)" fill="#007BFF"/>
<rect x="568" y="781" width="426" height="440" transform="rotate(90 568 781)" fill="#007BFF"/>
<rect x="1354" y="781" width="426" height="440" transform="rotate(90 1354 781)" fill="#007BFF"/>
<rect x="568" y="1278" width="426" height="440" transform="rotate(90 568 1278)" fill="#007BFF"/>
<path d="M204.965 89.18C198.335 88.14 195.085 86.19 195.085 81.12C195.085 75.53 200.805 72.41 209.255 72.41C217.445 72.41 223.685 75.27 224.595 81.51H235.645C234.215 70.07 225.245 62.79 209.775 62.79C192.095 62.79 183.905 71.24 183.905 82.16C183.905 92.04 190.275 96.98 199.635 98.67L214.325 101.14C222.645 102.57 226.285 105.69 226.285 111.41C226.285 118.56 219.785 122.07 209.905 122.07C200.025 122.07 193.525 118.43 192.485 111.02H181.305C182.735 123.5 191.835 131.69 210.425 131.69C228.105 131.69 237.335 121.94 237.335 111.15C237.335 99.19 230.055 93.34 218.615 91.39L211.205 90.22L204.965 89.18ZM268.753 64.48V44.72H257.703V64.48H246.393V74.1H257.703V111.67C257.703 125.58 266.023 130 280.193 130H285.263V120.12H280.453C271.613 120.12 268.753 116.74 268.753 110.11V74.1H285.263V64.48H268.753ZM345.165 130H355.565V85.41C355.565 70.72 345.035 62.79 328.525 62.79C313.835 62.79 303.435 69.81 302.525 81.9H313.575C314.095 76.18 319.035 72.41 328.785 72.41C340.225 72.41 344.775 78.13 344.775 86.06V88.66H323.455C305.255 88.66 298.365 99.84 298.365 110.37C298.365 121.55 306.815 131.69 321.895 131.69C331.255 131.69 338.275 128.18 342.305 123.11H345.165V130ZM324.625 122.07C314.875 122.07 309.415 117.39 309.415 109.98C309.415 102.18 314.355 97.5 325.145 97.5H344.775V103.48C344.775 113.88 335.545 122.07 324.625 122.07ZM391.009 64.48V44.72H379.959V64.48H368.649V74.1H379.959V111.67C379.959 125.58 388.279 130 402.449 130H407.519V120.12H402.709C393.869 120.12 391.009 116.74 391.009 110.11V74.1H407.519V64.48H391.009ZM437.391 47.45V35.49H425.691V47.45H437.391ZM437.001 64.48H425.951V130H437.001V64.48ZM503.029 110.24C501.339 117.52 495.879 122.07 486.519 122.07C471.829 122.07 465.719 110.11 465.719 96.98C465.719 83.98 471.699 72.41 486.519 72.41C495.489 72.41 500.559 76.83 502.639 83.46H513.689C511.479 71.37 502.119 62.79 486.519 62.79C466.109 62.79 454.669 77.48 454.669 97.24C454.669 116.61 466.109 131.69 486.519 131.69C501.729 131.69 511.609 123.11 514.079 110.24H503.029Z" fill="#274867"/>
<path d="M920.621 130H931.021V85.41C931.021 70.72 920.491 62.79 903.981 62.79C889.291 62.79 878.891 69.81 877.981 81.9H889.031C889.551 76.18 894.491 72.41 904.241 72.41C915.681 72.41 920.231 78.13 920.231 86.06V88.66H898.911C880.711 88.66 873.821 99.84 873.821 110.37C873.821 121.55 882.271 131.69 897.351 131.69C906.711 131.69 913.731 128.18 917.761 123.11H920.621V130ZM900.081 122.07C890.331 122.07 884.871 117.39 884.871 109.98C884.871 102.18 889.811 97.5 900.601 97.5H920.231V103.48C920.231 113.88 911.001 122.07 900.081 122.07ZM985.185 62.79C974.785 62.79 968.675 66.82 965.165 71.5H962.305V35.49H951.255V130H961.915V122.98H964.775C968.415 127.53 974.785 131.69 985.185 131.69C1003.25 131.69 1013.91 116.61 1013.91 97.24C1013.91 77.48 1003.25 62.79 985.185 62.79ZM982.715 122.07C968.155 122.07 962.175 110.11 962.175 97.24C962.175 84.37 968.155 72.41 982.715 72.41C995.845 72.41 1002.86 82.68 1002.86 97.24C1002.86 111.8 995.845 122.07 982.715 122.07ZM1049.44 89.18C1042.81 88.14 1039.56 86.19 1039.56 81.12C1039.56 75.53 1045.28 72.41 1053.73 72.41C1061.92 72.41 1068.16 75.27 1069.07 81.51H1080.12C1078.69 70.07 1069.72 62.79 1054.25 62.79C1036.57 62.79 1028.38 71.24 1028.38 82.16C1028.38 92.04 1034.75 96.98 1044.11 98.67L1058.8 101.14C1067.12 102.57 1070.76 105.69 1070.76 111.41C1070.76 118.56 1064.26 122.07 1054.38 122.07C1044.5 122.07 1038 118.43 1036.96 111.02H1025.78C1027.21 123.5 1036.31 131.69 1054.9 131.69C1072.58 131.69 1081.81 121.94 1081.81 111.15C1081.81 99.19 1074.53 93.34 1063.09 91.39L1055.68 90.22L1049.44 89.18ZM1126.22 62.79C1105.68 62.79 1093.98 77.87 1093.98 97.24C1093.98 116.61 1105.68 131.69 1126.22 131.69C1146.63 131.69 1158.46 116.61 1158.46 97.24C1158.46 77.87 1146.63 62.79 1126.22 62.79ZM1126.22 122.07C1111.66 122.07 1105.03 110.11 1105.03 97.24C1105.03 84.37 1111.66 72.41 1126.22 72.41C1140.65 72.41 1147.41 84.37 1147.41 97.24C1147.41 110.11 1140.65 122.07 1126.22 122.07ZM1175.71 35.49V130H1186.76V35.49H1175.71ZM1207.04 64.48V106.08C1207.04 121.81 1215.88 131.69 1232 131.69C1240.84 131.69 1248.12 128.05 1251.76 122.98H1254.62V130H1265.28V64.48H1254.23V99.97C1254.23 111.8 1246.3 121.81 1234.73 121.81C1223.68 121.81 1218.09 115.83 1218.09 103.74V64.48H1207.04ZM1301.75 64.48V44.72H1290.7V64.48H1279.39V74.1H1290.7V111.67C1290.7 125.58 1299.02 130 1313.19 130H1318.26V120.12H1313.45C1304.61 120.12 1301.75 116.74 1301.75 110.11V74.1H1318.26V64.48H1301.75ZM1392.22 93.34C1391.83 77.22 1382.47 62.79 1362.97 62.79C1343.08 62.79 1331.38 76.44 1331.38 96.59C1331.38 116.74 1342.82 131.69 1363.23 131.69C1379.48 131.69 1388.97 123.11 1391.05 111.93H1379.87C1377.92 118.17 1372.46 122.07 1363.23 122.07C1349.71 122.07 1342.69 112.71 1342.3 97.11H1392.22V93.34ZM1362.71 72.41C1373.76 72.41 1380.13 79.56 1380.78 87.88H1342.95C1344.38 79.56 1350.88 72.41 1362.71 72.41Z" fill="#274867"/>
<path d="M185.054 556H253.374V539.68H229.534V444H207.294L184.894 459.36V478.08L207.134 463.04H210.974V539.68H185.054V556Z" fill="white"/>
<path d="M182.207 941V956.84H229.727V960.68L205.567 980.36V997.32C208.287 996.68 211.647 996.36 215.647 996.36C230.207 996.36 238.047 1004.68 238.047 1017.48C238.047 1030.44 229.407 1038.44 215.487 1038.44C203.487 1038.44 194.367 1031.72 193.247 1020.2H174.527C175.327 1040.04 191.487 1055.08 215.487 1055.08C239.487 1055.08 256.607 1041 256.607 1017.48C256.607 996.68 243.487 985.16 226.687 984.36V980.36L251.007 960.68V941H182.207Z" fill="white"/>
<path d="M980.142 973.32C981.422 961 989.422 955.4 1000.3 955.4C1011.82 955.4 1019.66 961.64 1019.66 973.96C1019.66 985.8 1010.22 994.76 1001.9 1001.32L961.742 1033V1053H1041.58V1036.68H989.742V1032.84L1015.66 1011.88C1028.46 1001.64 1038.38 989 1038.38 973.8C1038.38 950.92 1022.54 938.76 1000.78 938.76C978.542 938.76 962.862 950.28 961.582 973.32H980.142Z" fill="white"/>
<path d="M251.556 1508.56V1438H228.356L179.076 1504.72V1524.88H233.476V1550H251.556V1524.88H266.116V1508.56H251.556ZM197.476 1508.56V1504.72L230.116 1459.12H233.956V1508.56H197.476Z" fill="white"/>
</g>
<defs>
<clipPath id="clip0_943_700">
<rect width="1474" height="1844" fill="white"/>
</clipPath>
</defs>
</svg>
