<svg width="1474" height="717" viewBox="0 0 1474 717" fill="none" xmlns="http://www.w3.org/2000/svg">
<g clip-path="url(#clip0)">
<path d="M1547 -25H-41V717H1547V-25Z" fill="white"/>
<rect x="36" y="40" width="1390" height="617" stroke="#007BFF" stroke-width="4"/>
<rect x="83" y="89" width="1296" height="142" stroke="#007BFF" stroke-width="4"/>
<rect x="83" y="278" width="1296" height="142" stroke="#007BFF" stroke-width="4"/>
<rect x="83" y="467" width="1296" height="142" stroke="#007BFF" stroke-width="4"/>
<path d="M121.025 139.625V133.341H114.877V139.625H121.025ZM120.82 148.573H115.014V183H120.82V148.573ZM140.213 148.573V138.191H134.407V148.573H128.464V153.628H134.407V173.369C134.407 180.678 138.778 183 146.224 183H148.888V177.809H146.361C141.716 177.809 140.213 176.033 140.213 172.549V153.628H148.888V148.573H140.213ZM187.753 163.737C187.548 155.267 182.63 147.685 172.384 147.685C161.933 147.685 155.785 154.858 155.785 165.445C155.785 176.033 161.796 183.888 172.52 183.888C181.059 183.888 186.045 179.38 187.138 173.505H181.264C180.239 176.784 177.37 178.833 172.52 178.833C165.417 178.833 161.728 173.915 161.523 165.718H187.753V163.737ZM172.247 152.74C178.053 152.74 181.4 156.497 181.742 160.869H161.865C162.616 156.497 166.031 152.74 172.247 152.74ZM232.927 147.685C228.624 147.685 225.345 149.188 223.227 152.262H221.724C219.88 149.188 216.806 147.685 212.64 147.685C208.268 147.685 205.604 149.256 203.896 151.92H202.394V148.573H196.792V183H202.599V163.942C202.599 157.726 205.331 152.877 211.069 152.877C215.372 152.877 217.626 155.814 217.626 161.483V183H223.432V162.849C223.432 157.043 226.438 152.877 231.834 152.877C236.274 152.877 238.46 155.677 238.46 161.347V183H244.266V160.732C244.266 152.808 240.85 147.685 232.927 147.685ZM272.334 183H300.135V177.672H289.684V135.185H282.238L272.265 141.947V148.232L282.306 141.469H283.673V177.672H272.334V183Z" fill="#007BFF"/>
<path d="M118.357 334.625V328.341H112.209V334.625H118.357ZM118.152 343.573H112.346V378H118.152V343.573ZM137.545 343.573V333.191H131.739V343.573H125.796V348.628H131.739V368.369C131.739 375.678 136.11 378 143.556 378H146.22V372.809H143.692C139.047 372.809 137.545 371.033 137.545 367.549V348.628H146.22V343.573H137.545ZM185.085 358.737C184.88 350.267 179.962 342.685 169.716 342.685C159.265 342.685 153.117 349.858 153.117 360.445C153.117 371.033 159.128 378.888 169.852 378.888C178.391 378.888 183.377 374.38 184.47 368.505H178.596C177.571 371.784 174.702 373.833 169.852 373.833C162.748 373.833 159.06 368.915 158.855 360.718H185.085V358.737ZM169.579 347.74C175.385 347.74 178.732 351.497 179.074 355.869H159.196C159.948 351.497 163.363 347.74 169.579 347.74ZM230.259 342.685C225.955 342.685 222.677 344.188 220.559 347.262H219.056C217.212 344.188 214.138 342.685 209.971 342.685C205.6 342.685 202.936 344.256 201.228 346.92H199.725V343.573H194.124V378H199.93V358.942C199.93 352.726 202.663 347.877 208.4 347.877C212.704 347.877 214.958 350.814 214.958 356.483V378H220.764V357.849C220.764 352.043 223.769 347.877 229.166 347.877C233.606 347.877 235.791 350.677 235.791 356.347V378H241.598V355.732C241.598 347.808 238.182 342.685 230.259 342.685ZM275.267 343.368C275.881 337.357 279.638 334.557 285.034 334.557C290.841 334.557 294.666 337.767 294.666 343.778C294.666 349.448 290.499 353.341 287.22 356.278C284.693 358.601 280.185 362.426 276.359 365.5L269.324 371.238V378H302.179V372.672H278.067V371.169L290.089 361.06C295.759 356.347 300.677 350.267 300.677 343.778C300.677 334.215 294.119 329.229 285.171 329.229C276.701 329.229 269.802 333.805 269.255 343.368H275.267Z" fill="#007BFF"/>
<path d="M118.79 523.625V517.341H112.643V523.625H118.79ZM118.585 532.573H112.779V567H118.585V532.573ZM137.978 532.573V522.191H132.172V532.573H126.229V537.628H132.172V557.369C132.172 564.678 136.544 567 143.989 567H146.653V561.809H144.126C139.481 561.809 137.978 560.033 137.978 556.549V537.628H146.653V532.573H137.978ZM185.518 547.737C185.313 539.267 180.395 531.685 170.149 531.685C159.698 531.685 153.551 538.858 153.551 549.445C153.551 560.033 159.562 567.888 170.286 567.888C178.824 567.888 183.811 563.38 184.904 557.505H179.029C178.005 560.784 175.136 562.833 170.286 562.833C163.182 562.833 159.493 557.915 159.288 549.718H185.518V547.737ZM170.013 536.74C175.819 536.74 179.166 540.497 179.507 544.869H159.63C160.381 540.497 163.797 536.74 170.013 536.74ZM230.692 531.685C226.389 531.685 223.11 533.188 220.993 536.262H219.49C217.646 533.188 214.572 531.685 210.405 531.685C206.033 531.685 203.369 533.256 201.662 535.92H200.159V532.573H194.558V567H200.364V547.942C200.364 541.726 203.096 536.877 208.834 536.877C213.137 536.877 215.391 539.814 215.391 545.483V567H221.198V546.849C221.198 541.043 224.203 536.877 229.599 536.877C234.039 536.877 236.225 539.677 236.225 545.347V567H242.031V544.732C242.031 536.808 238.616 531.685 230.692 531.685ZM271.465 519.185V524.376H292.367V525.879L280.687 535.989V542.341C281.779 542.068 283.146 541.931 284.853 541.931C291.889 541.931 295.646 545.825 295.646 552.109C295.646 558.667 291.342 562.56 284.785 562.56C279.047 562.56 274.607 559.076 274.061 553.612H268.05C268.596 561.74 275.085 567.888 284.785 567.888C294.553 567.888 301.657 562.014 301.657 552.109C301.657 542.888 295.646 537.765 287.449 537.56V536.125L299.403 525.879V519.185H271.465Z" fill="#007BFF"/>
</g>
<defs>
<clipPath id="clip0">
<rect width="1474" height="717" fill="white"/>
</clipPath>
</defs>
</svg>
