<svg width="1474" height="1543" viewBox="0 0 1474 1543" fill="none" xmlns="http://www.w3.org/2000/svg">
<g clip-path="url(#clip0_942_586)">
<rect width="1474" height="1543" fill="white"/>
<rect x="21" y="21" width="1428" height="1500" fill="#CCE5FF"/>
<rect x="593" y="135" width="284" height="298" fill="#007BFF"/>
<rect x="593" y="1125" width="284" height="298" fill="#007BFF"/>
<rect x="593" y="465" width="284" height="432" fill="#007BFF"/>
<path d="M615.165 253H666.405V240.76H648.525V169H631.845L615.045 180.52V194.56L631.725 183.28H634.605V240.76H615.165V253Z" fill="white"/>
<path d="M666.917 1211.92V1159H649.517L612.557 1209.04V1224.16H653.357V1243H666.917V1224.16H677.837V1211.92H666.917ZM626.357 1211.92V1209.04L650.837 1174.84H653.717V1211.92H626.357Z" fill="white"/>
<path d="M628.356 521.24C629.316 512 635.316 507.8 643.476 507.8C652.116 507.8 657.996 512.48 657.996 521.72C657.996 530.6 650.916 537.32 644.676 542.24L614.556 566V581H674.436V568.76H635.556V565.88L654.996 550.16C664.596 542.48 672.036 533 672.036 521.6C672.036 504.44 660.156 495.32 643.836 495.32C627.156 495.32 615.396 503.96 614.436 521.24H628.356ZM617.905 619V630.88H653.545V633.76L635.425 648.52V661.24C637.465 660.76 639.985 660.52 642.985 660.52C653.905 660.52 659.785 666.76 659.785 676.36C659.785 686.08 653.305 692.08 642.865 692.08C633.865 692.08 627.025 687.04 626.185 678.4H612.145C612.745 693.28 624.865 704.56 642.865 704.56C660.865 704.56 673.705 694 673.705 676.36C673.705 660.76 663.865 652.12 651.265 651.52V648.52L669.505 633.76V619H617.905Z" fill="white"/>
</g>
<defs>
<clipPath id="clip0_942_586">
<rect width="1474" height="1543" fill="white"/>
</clipPath>
</defs>
</svg>
