<svg width="1474" height="1543" viewBox="0 0 1474 1543" fill="none" xmlns="http://www.w3.org/2000/svg">
<g clip-path="url(#clip0_943_644)">
<rect width="1474" height="1543" fill="white"/>
<rect x="21" y="21" width="1428" height="1500" fill="#CCE5FF"/>
<rect x="124" y="87" width="283" height="283" fill="#007BFF"/>
<rect x="124" y="748" width="283" height="283" fill="#007BFF"/>
<rect x="1063" y="509" width="283" height="283" fill="#007BFF"/>
<rect x="1063" y="1172" width="283" height="283" fill="#007BFF"/>
<path d="M145.665 205H196.905V192.76H179.025V121H162.345L145.545 132.52V146.56L162.225 135.28H165.105V192.76H145.665V205Z" fill="white"/>
<path d="M143.905 782V793.88H179.545V796.76L161.425 811.52V824.24C163.465 823.76 165.985 823.52 168.985 823.52C179.905 823.52 185.785 829.76 185.785 839.36C185.785 849.08 179.305 855.08 168.865 855.08C159.865 855.08 153.025 850.04 152.185 841.4H138.145C138.745 856.28 150.865 867.56 168.865 867.56C186.865 867.56 199.705 857 199.705 839.36C199.705 823.76 189.865 815.12 177.265 814.52V811.52L195.505 796.76V782H143.905Z" fill="white"/>
<path d="M1093.86 567.24C1094.82 558 1100.82 553.8 1108.98 553.8C1117.62 553.8 1123.5 558.48 1123.5 567.72C1123.5 576.6 1116.42 583.32 1110.18 588.24L1080.06 612V627H1139.94V614.76H1101.06V611.88L1120.5 596.16C1130.1 588.48 1137.54 579 1137.54 567.6C1137.54 550.44 1125.66 541.32 1109.34 541.32C1092.66 541.32 1080.9 549.96 1079.94 567.24H1093.86Z" fill="white"/>
<path d="M1130.92 1258.92V1206H1113.52L1076.56 1256.04V1271.16H1117.36V1290H1130.92V1271.16H1141.84V1258.92H1130.92ZM1090.36 1258.92V1256.04L1114.84 1221.84H1117.72V1258.92H1090.36Z" fill="white"/>
</g>
<defs>
<clipPath id="clip0_943_644">
<rect width="1474" height="1543" fill="white"/>
</clipPath>
</defs>
</svg>
